<?xml version="1.0" encoding="UTF-8"?>
<svg id="Lag_1" data-name="Lag 1" xmlns="http://www.w3.org/2000/svg" viewBox="0 0 475.32 403.04">
  <defs>
    <style>
      .cls-1 {
        fill: #fffcf7;
      }

      .cls-2 {
        font-size: 116.76px;
      }

      .cls-2, .cls-3 {
        fill: #e8afc4;
        font-family: SinhalaMN-Bold, 'Sinhala MN';
        font-weight: 700;
      }

      .cls-3 {
        font-size: 70.46px;
      }
    </style>
  </defs>
  <path class="cls-1" d="m475.32,198.4c0,37.02-44.77,67.02-100,67.02-22.23,0-42.76-4.86-59.36-13.08v107.37h19.51l-43.33,43.33-43.32-43.33h19.51v-107.69c-11.11,1.72-23.42,2.68-36.38,2.68-4.67,0-9.25-.12-13.72-.37v49.86h19.92l-43.33,43.32-43.32-43.32h19.92v-57.71c-9.96-3.18-17.8-7.15-22.73-11.62-15.66,12.2-38.08,19.84-62.98,19.84C38.37,254.7,0,227.1,0,193.04c0-25.67,21.79-47.66,52.78-56.94-2.23-5.92-3.43-12.23-3.43-18.8,0-33.69,31.69-61,70.78-61,7.19,0,14.14.93,20.68,2.65C155.89,24.71,199.08,0,250,0s92.15,23.62,108.13,56.65c2.23-.23,4.5-.35,6.8-.35,36.58,0,66.23,30.61,66.23,68.37,0,5.94-.73,11.7-2.11,17.19,27.82,11.9,46.27,32.77,46.27,56.54Z"/>
  <ellipse class="cls-1" cx="121.26" cy="20.78" rx="20.72" ry="16.57"/>
  <circle class="cls-1" cx="66.48" cy="11.05" r="11.05"/>
  <circle class="cls-1" cx="373.2" cy="30.28" r="12.26"/>
  <text class="cls-2" transform="translate(121.26 182.8) scale(.96 1)"><tspan x="0" y="0">CO</tspan></text>
  <text class="cls-3" transform="translate(310.19 190.88) scale(1.18 1)"><tspan x="0" y="0">2</tspan></text>
</svg>