<?xml version="1.0" encoding="utf-8"?>
<!-- Generator: Adobe Illustrator 27.4.1, SVG Export Plug-In . SVG Version: 6.00 Build 0)  -->
<svg version="1.1" id="Layer_1" xmlns="http://www.w3.org/2000/svg" xmlns:xlink="http://www.w3.org/1999/xlink" x="0px" y="0px"
	 viewBox="0 0 800 514" style="enable-background:new 0 0 800 514;" xml:space="preserve">
<style type="text/css">
	.st0{fill:#FFFCF6;stroke:#FFFCF6;stroke-miterlimit:10;}
	.st1{fill:#FFFCF7;stroke:#FFFCF6;stroke-miterlimit:10;}
	.st2{fill:#195136;stroke:#FFFCF6;stroke-miterlimit:10;}
	.st3{fill:#FFFCF6;}
	.st4{font-family:'ArialRoundedMTBold';}
	.st5{font-size:294.7838px;}
</style>
<g id="planet_med_spir" transform="translate(-525.17 -501.708)">
	<path id="Icon_metro-earth2" class="st0" d="M919.59,962.63c-68.33,0-114.5-43.98-114.5-109.75s47.29-112.2,115.62-112.2
		s114.04,45.85,114.04,111.62S987.92,962.63,919.59,962.63z M1020.13,842.76c0.2-0.11,0.34-0.3,0.39-0.52
		c0.14,0.81,0.57,1.55,1.19,2.09c0.02,0.07-0.02,0.06,0.02,0.16c0.06,0,0.11-0.04,0.16-0.04c1.61,1.32,3.98,1.08,5.3-0.54
		c0.11-0.13,0.2-0.27,0.29-0.41c0.06,0.06,0.11,0.12,0.16,0.18c-0.01-0.12-0.02-0.24-0.04-0.36c0.32-0.53,0.5-1.13,0.51-1.75
		c-0.04-2.09-1.77-3.76-3.87-3.72c-1.28,0.01-2.48,0.66-3.19,1.73c-0.03-0.02,0-0.11-0.08-0.08c-0.02-0.64-0.23-1.26-0.6-1.78v3.86
		C1020.36,841.98,1020.28,842.38,1020.13,842.76z M842.46,841.64c0-1.12-2.66-3.04-3.35-3.04c0-0.2-1.08-2.49-1.49-2.49
		c0-0.77-2.82-4.25-3.27-2.73c-0.29,0.98,2.16,2.31,2.16,3.45c0.46,0,2.37,3.5,2.75,4.11c4.19,6.82-3.13,2.16-3.13-0.73
		c-0.94-0.45-2.41-3.88-2.41-4.82c-0.85-1.14-1.54-2.4-2.04-3.74c0-2.17-1.24-3.22-3.72-3.22c-0.12-0.22-2.2-3.03-2.23-3.03
		c-0.41-1.61-1.32-3.04-2.6-4.1c0-1.85-0.99-4.14-0.55-6.06c0.08-2.15-0.2-4.31-0.82-6.37c-6.67,13.66-10.14,28.66-10.16,43.86
		c0,44.97,29.65,83.17,71.11,97.79c0.05-3.69,0.33-8.11,1.21-8.11c0-0.55,0.49-2.86,0.93-2.86c0.09-1.6,0.09-3.21,0-4.82
		c-0.55-1.06,0.73-2.43,1.11-4.1c2.14-1.03,0.63-11.41,2.24-11.41c0-5.19,1.21-8.21,0.36-13.02c0.41,0-2.44-2.91-2.41-2.86
		c-2.73,0-4.64-4.21-4.64-6.06c-0.46-0.96-0.77-1.98-0.94-3.03c0.63,0-3.91-6.37-3.91-6.24c-2.4-1.28,0.13-3.07,0.37-5.17
		c-2.08-0.66,0.02-6.07,0.93-6.07c0.07-0.65,0.5-1.21,1.12-1.42c0.46,1.78,2.62-0.89,0.93-0.89c0-1.18-0.14-3.69,0-4.28
		c0-1.82-1.67-5.37-2.97-1.61c-1.39-0.66-4.9-0.54-5.2-2.67c0.22-1.05-2-3.19-2.78-3.57c0.73-1.83-3.77-4.28-5.39-4.28
		c0-0.4-0.86-0.22-1.11-0.72c-1.66,0-2.03-2.14-3.91-2.14c-2.16,0-4.33-1.42-6.32-1.42c-0.66-1.27-3.75-0.77-4.46-2.14
		c-1.62,0-2.25-2.95-2.3-4.03C845.5,846.27,844.39,841.64,842.46,841.64L842.46,841.64z M999.1,781.91
		c-0.01,0.06-0.03,0.12-0.06,0.16c0.12,0,0.26,0.13,0.39,0.18C999.31,782.14,999.21,782.03,999.1,781.91z M1001.43,784.37
		c0.26,0.37,0.4,0.81,0.41,1.27c0.27,0.01,0.4-0.13,0.62-0.19C1002.12,785.09,1001.76,784.75,1001.43,784.37L1001.43,784.37z
		 M1008.15,818.29c0.12-3.22-2.78-2.68-3.7-4.47c-0.96,0-1.31-0.72-2.61-0.72c-0.72-0.31-1.56-0.07-2,0.58
		c-1.99,0.73-0.79-0.93-2.28-0.93c0.07-1.84-0.69-2.34-2.79-2.14c-1.21,2.62-3.06,4.19-2.78,7.14c0.89,0.19,0.73,0.39,0.56,1.24
		c1.18,0.06,8.36-0.36,8.36-1.07c0.25,0,1.49,2.46,1.49,0.36c1,0,1.52,2.25,3.9,1.6C1006.3,820.34,1010.27,818.29,1008.15,818.29
		L1008.15,818.29z M1008.53,856.27c0.14-0.66-0.34-0.95-0.74-1.61c1.06,0-3.35-7.87-3.35-9.1c-0.67-0.32-1.53-2.57-1.69-3.39
		c-0.9-0.58-1.84-2.49-2.23-3.57c-1.49-1.21-2.69-2.73-3.53-4.46c1.33,0.14,3.34,0.4,3.34-1.25c-0.9,0-1.03-1.06-0.18-1.06
		c-0.28-1.09,0.6-1.88,0.8-2.74c0.36-1.26,0.59-2.56,0.69-3.86c-0.89-0.01-1.78,0.18-2.6,0.54c0,0.72-2.27-0.18-2.6-0.18
		c-0.49-0.94-4.02,1.22-5.01-0.72c-1.6-1.39-1.17-2.46-1.69-4.43c-0.26-1-1.68-1.06-2.54-1.22c-2.42-0.45-0.67,2.78-0.8,3.51
		c1.48,0-0.94,1.77-0.94,2.67c-2.51-0.52-1.67-3.21-3.15-3.92c-0.44-0.71-0.09-1.25-1.12-1.25c0-0.95,0.53-2.68-0.56-3.03
		c0-0.46-2.1-0.65-2.41-1.25c-1.33,0-4.42-4.84-5.37-3.21c-0.6,1.04,0.5,1.3,0.73,2.14c1.93-0.36,1.74,3.05,4.09,2.67
		c0,0.48,0.06,0.96,0.18,1.43c1.74-0.39,1.54,1.24,2.41,1.24c-0.63,0.81-2.65-1.3-2.1,0.48c0.32,1.03,0.14,1.91-1.24,2.91
		c0-1.11-0.09-4.1-1.3-4.1c-0.82-1.58-3.26-1.2-4.28-2.67c-0.84,0-1.16-2.5-2.6-2.67c-0.47,0.41-1.06,0.66-1.68,0.72
		c-0.78,1.51-5.2,0.16-5.2,0.36c-0.07,0.02-2.47,5.67-2.61,6.42c-0.27,1.6-1.61,1.63-2.01,3.15c-0.2,0.76-5.05,0.4-5.05,0.96
		c-2.1-0.67-3.9-2.08-3.9-4.28c0.03-2.16,0.29-4.31,0.75-6.42c0.42,0.11,0.51,0.25,0.75,0.72c1.28-0.46,4.28,0.3,4.28-1.07
		c1.25,0.03,1.62,0.51,1.11,1.43c1.16,0.21,3.16,0.49,3.16-1.07c-0.68,0-0.75-0.06-0.75-0.71c2.23-2.23-1.67-4.23-1.67-5.34
		c-0.79-0.25-2.4-1.9-1.25-1.28c0.97,0.51,4.5,1.58,3.11-0.68c0.09-0.02,0.15-0.09,0.18-0.17c0.39,0.27,2.06,1.91,2.06,0.36
		c0.46,0,2.22-1.07,0.74-1.07c0.14-0.8,0.11-1.47,0.18-1.96c2.36,1.22,1.04-0.83,2.23-1.6c0,1.48,1.27-0.71,2.04-0.71
		c0.92-1.32,3.02-0.3,3.53-1.79c-1.14-0.36-0.93-3.1-0.93-4.09c1.37,0.22,2.89-1.78,3.1-0.41c0.08,0.53,0.15,1.99,0.43,2.19
		c2.03,1.03,1.49-0.59,1.49-1.6c-0.68,0-1.59-2.29-1.68-3.39c-0.56,0.07-1.45,0.3-1.68,0.71c-2.03,0-3.4-0.71-5.01-0.71
		c-0.66-0.74-1.28-1.52-1.86-2.32c-1.13-1.87,1.13-1.33,1.48-1.41c0-1.77,7.66-1.46,8-4.29c-2.52,0,2.6-4.11,2.6-4.09
		c1.71-1.41,2.61-2.62,4.74-2.78c0.9-0.06,10.87-2.71,10.87-1.51c0.4,0.02,1.73,0.03,3.11,0.07c-41.29-36.61-103.21-37.3-145.3-1.62
		c0.16,0.3,0.26,0.64,0.29,0.98c1.01-0.07,2.47-0.69,2.79,0.54c-0.5-0.01-1-0.07-1.48-0.19c0.36,2.76-1.25,1.07-2.6,1.07
		c-0.38-0.22-0.8-0.38-1.23-0.46c-0.41,0.37-0.84,0.72-1.25,1.09c0.05,0.12-0.02,0.13,0.05,0.26c0.43,0,0.21,0.65,1.45,1.04
		c1.47,0.44,2.98,0.76,4.51,0.96c1.22,0.19,1.93-0.22,2.97-0.22c0-0.15,2.55-1.24,0.75-1.24c0.25-0.98-0.21-1.23-1.31-1.24
		c0.09-1.04,2.67-0.36,3.72-0.36c0.8-1.3,0.02-1.15,0.73-2.33c0.85-1.45,1.86-0.19,2.42-1.58c0.89,0.21,1.61,0.88,1.86,1.76
		c0.67,0.54,4.09,5.39,4.09,1.96c1.22,0.4,1.83,2.6,1.86,3.75c2.22-0.31,2.41-1.91,2.41-3.57c0.51,0-0.19-0.8-0.19-1.07
		c0.83-0.29,1.86,0.76,1.86-0.35c0.36,0,0.37,0.34,0.37,0.71c1.15,0.22,1.9-0.13,2.6,0.11c0.49,0.16,0.24,2.6,0.02,3.45
		c-0.28,1.09-2.44,1.1-2.44,1.61c-2.44,1.76,2.88,2.67,3.72,3.74c-0.82-0.02-1.62-0.14-2.41-0.35c-1.21,0-4.13,1.23-5.2,0.35
		c1.5,0,2-1.73,2.23-3.39c-1.39-0.48-2.91,0.26-3.4,1.65c-0.65,2.19-2.16-0.09-2.92,1.38c-0.29,0.09-2.98,1.29-2.98,0.89
		c-3.02,0.41-2.23,2.87-2.23,5.53c1.2,0.69,3.64,2.66,3.53,3.74c2.71,0.46,3.7,0.74,6.13,1.07c0.4,0.44,0.92,0.75,1.49,0.89
		c0,1.53,1.45,1.26,2.78,1.26c0-1.96,2.37,1.63,2.6,2.32c-0.33,0,0.56,2,0.74,2.68c-0.37-0.13-0.49,0-0.37,0.36
		c1.17,0.42,3.04,0.3,3.35-0.89c-1.13,0-0.75-1.24-0.75-1.97c-0.67-0.29-0.98-1.07-0.68-1.74c0.16-0.37,0.48-0.65,0.87-0.75
		c0,1.01,3.83-0.63,1.67-1.42c0.53-1.14,0.88-2.89,0.02-3.88c-0.55-0.62-1.24,0-1.51-0.94c1.46-0.35,0.39-3.03,0.37-4.28
		c0.46-0.17,1.67,0.28,1.67,0c1.43,0,3.81,1.74,4.65-0.37c2.39,1.05,0.49,2.05,2.98,1.25c0,0.57,2.81,3.21,3.16,3.21
		c0,0.13-0.07,0.89,0.55,0.89c0,0.57-0.37-0.33-0.37,0.71c0.35,0.04,2.23,0.36,2.23-0.35c1.2,0,2.04-1.41,2.04-2.49
		c0.75-0.47,2.07,3.92,2.97,3.92c0.67,1,2.79,2.45,2.79,3.39c0.45,0.44,0.92,0.32,0.92,1.61c0.57,0,1.68-2.14,1.68-0.18
		c1,0.29,1.82,1,2.23,1.96c-1.34,0-0.07,1.25-0.76,1.25c0,1.24-2.87,0.25-3.52,0.18c-0.89,3.83-6.26,1.08-9.5,2.07
		c-1.71,0.52-5.01,4.15-5.19,5.96c2.07,0.02,2.99-1.73,4.83-2.32c1.51,0,1.8-0.88,3.16-1.24c0,0.36,0.37,0.17,0.37,0.54
		c-2.64,0-1.04,1.65-0.26,2.84c0.38,0.62,0.96,1.09,1.64,1.33c-0.26,0.43-0.47,0.88-0.64,1.35c0,0.01-0.01,0-0.01,0.01
		c-0.5,0.16-1.48,0.51-1.68,0.89c-2.99,0.32-1.52,0.13-1.32-0.57c0.11,0.25,1.18,0.02,1.14,0.03c-0.18-0.86-0.45-0.74-0.19-1.24
		c-1.62,0-2.41,0.72-3.72,0.72c-0.45,0.67-1.1,1.17-1.86,1.43c-0.38,1.1-1.24,3.1-2.24,3.74c0-0.29-2.64,1.6-2.41,1.6
		c-0.59,0.92-1.23,0.89-1.49,2.32c-0.43,0.91-0.75,1.86-0.93,2.85c-1.15,0.74-1.58,3.74-3.53,3.74c-1.2,2.29-3.35,1.99-3.35,4.99
		c0.73,0.72,1.01,3.88,1.23,4.89c0.28,1.26,0.71,2.57-1.04,2.6c-0.12-0.19-1.35-1.96-1.12-1.96c-0.25-1.36-0.76-2.66-1.49-3.83
		c-0.73-0.99-2.1,0.16-3.16-0.28c-0.46-0.88-3.54-1.07-4.64-1.07c0.18,0.66,0.68,0.87,0.74,1.61c-0.72,0.44-1.54,0.66-2.38,0.63
		c-1.62-0.22-1.42-1.43-3.2-1.26c-2.74,0.22-4.85,2.51-4.83,5.26c-0.32,0-0.32,5.35,0,5.35c0,1.51,1.3,2.61,1.3,3.74
		c1.26,0,2.68,2.67,3.9,2.67c0.14,0.95-0.62,1.09,1.49,1.08c0-0.1,1.14-0.69,1.3-1.43c-1.45-0.34-0.01-2.14,0.93-2.49
		c0,1.27,1.86-0.42,1.86-0.54c0.21-0.08,2.05-0.71,2.05-0.71c0-1.44,1.4,0.14,0.37,0.71c-1,0-0.93,1.61-1.48,1.61
		c-0.24,1.15-0.71,2.14-0.99,3.26c-0.36,1.38,0.8,1.52,0.43,2.81c1.48,0.14,2.98,0.14,4.46,0c0.01-0.25-0.05-0.5-0.19-0.71
		c2.16,0,0.19,3.92,1.49,3.92c0,1.48,0.74,2.64,0.74,3.57c1.02,0.47,1.56,1.59,1.3,2.67c1.24,0.16,3.9,0.46,3.9-1.07
		c1.88,0,2.01,1.23,1.87,2.49c3.74,0,1.4-3.57,2.96-3.57c0.15-0.59,0.4-0.69,0.77-0.3c0.77,0.4,1.35-0.74,1.96-1.09
		c0.31-0.2,0.65-0.37,1-0.51c0.53,0.3,0.57,0.22,0.8,0.56c1.06-0.1,2.07-0.49,2.92-1.14c1.34,0.16,0.9,2.92,3.41,3.1
		c1.01,0.07,3.33,0.34,4.2-0.24c0.22-0.14,1.01,0.48,1.1,0.75c0.84,0,0.77,0.7,1.13,0.68c0.06,0.15,0.23,0.22,0.38,0.17
		c0.11,0.3,0.77,0.39,1.12,1.24c0,0.77,1.67,0.91,1.67,1.42c1.2,0.58-0.41,0.74,1.43,1.27c0.98,0.41,2,0.7,3.04,0.87
		c0.35-1.27,1.48,0.17,2.05,0.17c0.29,0.58,0.45,0.14,0.74,0.72c1.72,1.39,0.59,0.85,1.3,2.32c0.83,0.52,1.09,2.34,1.32,3.39
		c-0.66,0-0.19,2.45-0.19,2.68c-0.8,0,2.06,1.47,2.06-0.36c1.17,0.19,1.95,1.42,2.78,1.42c-0.49,1.08,1.3,1.89,1.3,0.19
		c1.76,0.17,1.29,2.7,1.12,3.57c1.31,0,1.69-0.7,2.8-0.83c1.21-0.8,2.62-1.24,4.08-1.27c4.19-0.08,7.65,3.25,7.73,7.43v0.01
		c-0.09,3.7-2.88,6.77-6.56,7.21c-0.31,0.35-0.63,0.69-0.97,1.01c0,0.36-0.09,3.91-0.19,3.91c0,0.71-0.57,4.64-1.11,4.64
		c0,2.02-1.37,2.38-1.86,4.28c-1.13,0.8-4.18,2.14-4.65,3.03c-0.87,0-1.52,0.72-2.41,0.72c-0.12,0.25-2.02,1.96-1.68,1.96
		c-0.14,1.27,0.1,4.24-0.61,5.08c-0.48,0.55-1.17,0.49-0.87,1.36c-1.04,0,0.06,0.71-1.59,0.71c-1.04,0-2.88,1.42-2.94,2.63
		c0.05,1.38-0.63,2.69-1.79,3.44c0,0.51-2.41,0.65-2.41,1.96c0.22,0,0,2.43,0,2.67c-1.04,0.08-2.03,0.52-2.78,1.24
		c-2.43,0-2.13,0.24-3.71,1.25c0,0.31-0.22,1.42-0.56,1.42c0,1.81-1.34,0.16-2.42,1.08c0.42,0,0.97,1.78,0.74,1.78
		c0,1.57-1.01,1.7-2.04,2.86c-0.49,0.31-0.95,1.61-1.3,1.61c0,1.06-0.55,2.02-0.55,3.03c0.23,0,0.02,0.45,0.18,0.88
		c0.52-0.14,0.53-0.71,0.74-0.71c0-0.89,1.48,0.53,0.56,0.53c-0.77,1.12-1.59,1.14-2.05,2.68c-0.46,0-0.87,0.43-1.21,0.94
		c9.32,2.48,18.93,3.76,28.58,3.79c38.08,0,71.5-18.97,90.8-47.59c0.06-2.03,0.34-4.05,0.84-6.02c0.76,0.54,1.32,1.54,1.86,0
		c-1.34-0.25-1.01-0.7-0.56-1.78c0.73,0.4,1.54,0.61,2.37,0.61c0.26-0.46,0.46-0.95,0.71-1.41c-0.76-0.57,0.29-2.03,0.65-1.32
		c0.19-0.36,0.36-0.73,0.54-1.09c-0.09-0.02-0.06,0.03-0.19-0.01c0-0.65,0.12-0.57,0.56-0.89c0,0.04,0.01,0.09,0.02,0.13
		c6.98-13.92,10.62-29.27,10.65-44.84c0-0.53-0.08-1.03-0.08-1.56c-0.2,0.73-0.58,1.52-1.11,1.7c0,0.47-5.53,2.78-5.2,3.74
		c-0.97,0-4.39,0.94-5.02,2.14c-0.69,0-3.46,0.95-3.72,1.43C1009.53,860.2,1010.19,856.28,1008.53,856.27L1008.53,856.27z
		 M1024.25,815.52h-4.11c-0.03-0.04-0.06-0.04-0.09-0.1c-0.21,0-1.08-1.89-0.74-2.32c0.22,0,0.44,0.02,0.67,0.04
		c-0.35-0.82-0.73-1.62-1.11-2.43c-0.76,0.69-1.71,1.15-2.72,1.32c0,0.31-1.65,3.39,0,3.39c0.01,0.05,0.02,0.11,0.05,0.16
		c-2.04,0.04-3.66,1.74-3.62,3.78c0.04,2.04,1.74,3.66,3.78,3.62c0.06,0,0.11,0,0.17-0.01h1.52c0.09,0.68,0.47,1.27,1.83,1.56
		c0.42,1.72,3.61,2.33,4.09,0.53c-1.35,0-0.9-1.24-0.79-2.08h1.08c2.06,0.08,3.78-1.53,3.86-3.59s-1.53-3.78-3.59-3.86
		C1024.43,815.52,1024.34,815.52,1024.25,815.52L1024.25,815.52z M1012.98,863.92c0.27,0.01,2.06-0.03,2.06-0.34
		c1.82,0.01,3.64-0.23,5.39-0.72c0,2.31-2.02,3.6-1.68,5.89c-1.34,0-0.75,1.32-0.75,1.78c-0.87,0.51-1,1.45-2.04,1.96
		c0,1.04-2.41,2.75-3.12,3.63c-0.8,0.99-3.22,2.71-3.54,3.97c0.09-0.3-4.42,4.52-3.37,4.52c0,0.9-1.27,8.02,0.37,8.02
		c0,0.62,1.4,6.6,0.55,6.6c0,1.92-1.3,3.1-1.3,4.63c-0.63,0.42-1.54,0.65-1.86,1.26c-1.14,0-1.69,2.32-2.23,2.32
		c0,2.48-0.75,4.32-0.75,7.13c0.21,0-1.48,4.01-1.48,4.27c-1.37,0.89-4.83,4.06-4.83,5.72c0,0-2.41,3.26-2.78,3.74
		c-0.73,0-6.33,1.01-6.33,1.43c-1.19,0-4.27,0.9-5.01-0.18c0-1.13-0.64-2.57-0.74-4.11c-0.57,0-0.67-2.32-1.3-2.32
		c0-0.49-3.55-7.32-2.98-7.32c-0.11-1.04-0.36-2.06-0.74-3.03c0-2.46-1.86-4.5-1.86-6.77c-0.55,0-1.69-4.99-1.11-4.99
		c0-2.62,0.95-4.33,1.35-7.24c0.3-2.49,0.03-5.02-0.79-7.39c-0.32,0-1.38-1.7-1.49-2.14c-1.42-1.1-2.18-2.84-2.04-4.63
		c0.97-1.07,1.36-5.1,1.12-6.42c-1.88-0.86-2.63-0.54-4.66-0.54c-1.2-2.32-9.25-0.89-11.53-0.89c0,1.27-5.61-0.25-6.13-1.25
		c-1.37,0-4.08-2.8-4.08-4.1c-1.5-0.96-3.9-5.74-3.9-7.31c-1.3-0.62-0.9-3.04-0.19-3.04c0.18-0.67-0.46-2.78-0.76-3.79
		c-0.22-0.75,0.76-1.56,0.76-2.46c-0.18-2.2,0.35-4.41,1.51-6.29c0.54-0.85,1.03-1.74,1.46-2.66c0.77-1.87,1.01-0.09,2.05-1.76
		c1-0.48,1.58-2.07,2.61-2.85c0.45-0.57,0.46-0.81,0-1.25c0.63-1.04,1.07-2.19,1.3-3.38c1.45-1.94,0.42-1.06,1.86-0.89
		c0.53-0.55,1.4-1.97,2.23-1.97c0.45-0.69,1.23-1.09,2.05-1.07c0,1.07,3.03-0.35,3.35-0.35c0.52-1,3.86-2.14,4.65-2.14
		c0-1.22,6.59,0.34,7.62,0.18v-0.54c1.41,0.32,3.98,5.75,3.71,6.96c0.93-0.09,1.86-0.09,2.79,0c0,1.15,2.26,1.44,3.29,1.49
		c1.43,0.07,5.63-0.14,5.63-2.02c0.93-0.11,1.78,0.56,1.88,1.5c0.02,0.15,0.01,0.31-0.01,0.46c1.25,0.13,8.7,0.27,8.17,1.78
		c1.09,0,1.37,1.79,2.41,1.79c-0.21,1.24,1.3,4.46,2.41,4.46c0.06,1.41,0.66,2.75,1.68,3.74c0.53,1.53,2.27,4.76,3.9,5.71
		c-0.7,1.27,1.06,2.31,1.49,3.57c-0.1,0,0.38,1.87,0.92,2.14c0,1.27,2.77,6.42,4.28,6.42C1012.52,863.5,1011,863.78,1012.98,863.92
		L1012.98,863.92z M972.84,823.99c0.29-1.06,0.94-0.24,1.54-0.04c1.43,0.45,0.94-0.02,2-0.48
		C976.37,826.36,974.64,824.16,972.84,823.99z M968.93,818.64c0.76,0,0.97,3.27-1.11,2.67c0-0.81-0.53-2.32,0.56-2.32
		C968.69,820.26,968.93,819.74,968.93,818.64L968.93,818.64z M968.01,816.5c0.86,0.36,1.24,0.24,1.11-0.36
		c1.13,0.36-0.15,1.13-0.37,1.97C968.17,817.56,968.35,817.36,968.01,816.5L968.01,816.5z M948.11,800.62
		c-1.82-0.45,1.88-0.98,2.04-1.42c-0.46,0.01-0.84-0.35-0.86-0.81c0-0.11,0.02-0.22,0.06-0.33c0.28-0.62,0.74,0.74,1.37,0.43
		c0.75-0.07,2.23-1.15,1.47,0.93c-0.77,2.11-1.48,3.66-4.26,3.7C946.93,802.16,947.88,801.65,948.11,800.62L948.11,800.62z
		 M954.99,793.31c1.5,0,0.19,1.07-0.15,1.07c0.26,0.1-0.05,0.96-0.05,1.24c1.39-0.02,1.41-0.83,2.41-1.07
		c-0.21,1.2-1.6,1.43-0.24,2.46c0.72,0.54,1.45,1.18,1.17,2.01c1.77,0,2.03,1.64,1.67,3.57c0.98,0,0.94,0.04,0.94-0.9
		c0.95,0.25,0.88,1.08,0,1.08c-0.88,1.67-3.19,1.6-4.83,1.6c-0.02-1.3-0.27-1.38-1.52-1.01c-1.7,0.5-0.37-1.3-0.34-2.2
		c0.19,0,3.86,0.16,1.67-0.54c-0.12-1.92-0.57-2.49-2.41-2.49c0-1.31-0.48-1.21-0.7-2.65C952.29,793.36,954.33,795.63,954.99,793.31
		L954.99,793.31z M954.42,804.9c0,0.44-0.93,0.79-1.11,0.17c0.18,0.06,0.25,0,0.18-0.17H954.42z M939.18,785.75h-7.73
		c-2.13,0,3.87-1.79,3.87-3.85s-6-3.6-3.87-3.6h7.73c2.06-0.07,3.78,1.54,3.84,3.6c0.07,2.06-1.54,3.78-3.6,3.84
		C939.35,785.75,939.27,785.75,939.18,785.75L939.18,785.75z M894.13,851.63c0.43,0,0.94,0.16,0.94,0.54
		C894.5,852.16,893.78,852.68,894.13,851.63z M887.08,851.99c-0.31,0.57-2.82,0.47-3.16-0.19c0.93,0,1.65,0.36,2.6,0
		c0-0.49-0.42-0.89-0.74-1.42c1.01,0,2.15,0.74,3.53,0.71c0-0.83-0.38,0.18,0-0.89c0.88,0.4,1.6,1.09,2.04,1.96
		C889.93,852,888.51,851.94,887.08,851.99L887.08,851.99z M878.9,847.71c-1.27-0.11-2.46-0.68-3.35-1.61
		c0.92,0.04,1.83,0.4,2.41-0.54c2.36,0.23,2.57,1.79,4.46,1.79c0.36,0.6,2.38,1.99,0.42,2.17
		C881.3,849.67,879.8,848.98,878.9,847.71z M880.38,852.7c-0.69,0-1.83,0.29-1.3-1.08C880,851.74,880.43,852.11,880.38,852.7
		L880.38,852.7z M881.68,852.53l-1.11,0.18C880.68,851.88,881.49,850.96,881.68,852.53L881.68,852.53z M888.56,860.36
		c-0.15,0.5-0.12,0.53-0.73,0.53c0.06-0.23,0.12-0.46,0.18-0.71C888.19,860.25,888.37,860.31,888.56,860.36L888.56,860.36z
		 M871.83,845.56c0.18,0.06,0.37,0.13,0.56,0.18c0.24,0.89,0.74,0.45,1.3,0.18C873.69,846.96,871.2,847.26,871.83,845.56
		L871.83,845.56z"/>
	<g id="gne" transform="translate(542.869 520.443) rotate(-13)">
		<g id="Group_3" transform="translate(90.687 35.661)">
			<path id="Path_22" class="st1" d="M334.24,187.18c0,0-26.02-14.79-51.85,6.52s-32.93,44-32.93,44c4.94-1.42,9.96-2.59,15.02-3.5
				c12.38-2.21,20.82-1.78,25.31-0.44c9.69,2.89,25.39,3.54,41.72-16.35c5.51-6.72,6-9.57,12.02-15.27
				c4.07-3.88,8.76-7.05,13.88-9.37c-2.86,0.35-5.76,0.25-8.59-0.29c-1.38-0.3-2.75-0.67-4.09-1.12c-3.6-1.11-7.1-2.5-10.47-4.18
				L334.24,187.18z"/>
			<path id="Path_23" class="st1" d="M306.32,237.02c-5.74,1.12-11.66,0.79-17.24-0.94c-2.4-0.72-9.57-2.09-24.18,0.51
				c-4.98,0.86-9.9,2.01-14.75,3.43l-4.39,1.32l1.37-4.38c0.31-0.95,7.63-23.63,33.71-45.14c26.05-21.51,52.81-7.72,54.52-6.81
				c3.24,1.6,6.6,2.94,10.05,4.01c1.99,0.6,3,0.89,3.87,1.06c2.58,0.48,5.22,0.57,7.82,0.26l15.51-1.83l-14.22,6.46
				c-4.86,2.22-9.32,5.23-13.19,8.92c-2.6,2.44-4.88,5.2-6.79,8.22c-1.31,1.93-2.76,4.06-5.03,6.83
				c-8.27,10.08-17.43,16.15-27.05,18.07L306.32,237.02z M261.32,232.31c0.89-0.18,1.79-0.35,2.73-0.51
				c15.07-2.68,23.03-1.39,26.43-0.37c14.05,4.17,27.22-1.03,39.14-15.57c1.69-2.07,3.28-4.23,4.75-6.47
				c2.11-3.31,4.62-6.34,7.48-9.02c2.1-2,4.37-3.82,6.77-5.45c-0.09-0.02-0.18-0.03-0.27-0.05c-1.47-0.32-2.93-0.72-4.36-1.19
				c-3.72-1.14-7.34-2.59-10.82-4.32l-0.12-0.06c-1.01-0.58-24.92-13.66-49.11,6.28c-18.29,15.09-27.03,31.03-30.4,38.5
				C255.64,233.55,258.32,232.92,261.32,232.31L261.32,232.31z"/>
		</g>
		<path id="Path_24" class="st2" d="M404.06,242c-24.71,5.01-46.6,16.51-66.79,31.32C355.26,255.96,378.89,243.62,404.06,242z"/>
		<g id="Group_4">
			<path id="Path_25" class="st1" d="M274.08,191.32c0,0,35.97,3.83,46.92,34.6s2.4,51.82,2.4,51.82s-5.22-5.32-12.48-11.22
				c-10.75-8.75-20.01-12.25-24.79-14.84c-8.99-4.87-18.1-15.61-27.31-37.72c-1.76-4.23-3.48-8.77-5.09-13.63
				c-1.85-5.56-3.36-10.91-4.59-15.99c3.81,1.61,7.71,2.99,11.69,4.12C265.18,189.7,269.61,190.66,274.08,191.32L274.08,191.32z"/>
			<path id="Path_26" class="st1" d="M324.3,282.76l-2.8-2.91c-3.91-3.96-8.01-7.71-12.3-11.26c-6.29-5.14-13.21-9.47-20.58-12.88
				c-1.47-0.73-2.76-1.36-3.83-1.96c-10.54-5.8-19.8-18.69-28.27-39.41c-1.86-4.55-3.58-9.25-5.13-13.99
				c-1.77-5.39-3.33-10.92-4.64-16.4l-0.99-4.13l4.5,1.95c3.7,1.6,7.5,2.96,11.38,4.08c4.22,1.22,8.51,2.17,12.85,2.83
				c2.04,0.26,37.86,5.2,48.85,36.63c11.04,31.53,2.73,53.02,2.37,53.93L324.3,282.76L324.3,282.76z M252.52,187.18
				c1.06,4.07,2.25,8.13,3.56,12.13c1.52,4.66,3.22,9.28,5.04,13.75c8.12,19.82,16.74,32.04,26.36,37.34
				c1.02,0.56,2.23,1.15,3.63,1.84c7.71,3.6,14.94,8.13,21.53,13.51c3.96,3.28,7.3,6.35,9.56,8.51c1.81-7.32,4.48-24.95-3.53-47.83
				c-10.37-29.6-43.5-33.59-44.9-33.74l-0.13-0.02c-4.59-0.72-9.14-1.72-13.61-3C257.48,188.94,254.97,188.1,252.52,187.18
				L252.52,187.18z"/>
		</g>
		<path id="Path_27" class="st2" d="M325.67,273.16c-5.3-24.59-15.8-47.76-30.79-67.95C312.65,223.65,323.52,247.65,325.67,273.16z"
			/>
	</g>
</g>
<text transform="matrix(1.0923 0 0 1 523.6582 455.292)" class="st3 st4 st5">4</text>
<text transform="matrix(1.0923 0 0 1 65.2769 458.8184)" class="st3 st4 st5">4</text>
</svg>
