<?xml version="1.0" encoding="UTF-8"?><svg xmlns="http://www.w3.org/2000/svg" viewBox="0 0 231.9 229.4"><defs><style>.cls-1{fill:#fffcf6;}.cls-2{fill:#195136;}</style></defs><g id="cirkel"><ellipse class="cls-2" cx="116" cy="114.7" rx="116" ry="114.7"/></g><g id="blad_højre"><path class="cls-1" d="m208.1,100.3s-9.9-8.6-22.9-1.6c-12.9,7-18,16.1-18,16.1,0,0,3-.3,6.8-.2,5.5.1,9.1,1,10.9,2,3.9,2.1,10.6,3.7,19.4-3.5,2.9-2.4,3.4-3.6,6.5-5.5,2.7-1.7,5.2-2.5,6.8-2.9-.9,0-2.2-.3-3.7-.9-.4-.2-.8-.4-1.7-.8-1.6-.9-3-1.8-4.2-2.7Z"/><path class="cls-1" d="m191.8,119.4c-2.5,0-5-.6-7.3-1.9-1-.5-3.9-1.7-10.5-1.8-3.6,0-6.6.2-6.6.2l-2,.2,1-1.8c.2-.4,5.3-9.5,18.4-16.6,13.1-7,23.4,1.2,24.1,1.7,1.3,1,2.6,1.8,4,2.6.8.4,1.2.6,1.6.8,1,.4,2.2.7,3.3.8l6.8.5-6.7,1.6c-2.3.5-4.4,1.4-6.4,2.7-1.7,1.1-2.6,1.9-3.6,3-.7.7-1.5,1.5-2.8,2.5-4.4,3.6-8.9,5.5-13.2,5.5Zm-19-5.9c.4,0,.8,0,1.2,0,6.7.1,10,1.4,11.4,2.1,5.7,3,11.8,1.9,18.2-3.4,1.1-.9,1.9-1.7,2.6-2.4,1.1-1.1,2-2,4-3.2,1.1-.7,2.2-1.3,3.4-1.8,0,0,0,0-.1,0-.4-.2-.9-.4-1.8-.9-1.5-.8-2.9-1.7-4.3-2.8h0c-.4-.4-9.6-8.1-21.7-1.5-9.2,4.9-14.3,11.1-16.4,14,1,0,2.2,0,3.5,0Z"/><path class="cls-2" d="m198.7,107c-11.1,0-21.5,3.1-31.5,7.8,9.2-5.9,20.5-9.2,31.5-7.8h0Z"/></g><g id="blad_venstre"><path class="cls-1" d="m143.4,66.3s15.8,2.1,20.6,18.6c4.8,16.6,1.1,27.9,1.1,27.9,0,0-2.3-2.9-5.5-6-4.7-4.7-8.8-6.6-10.9-8-3.9-2.6-8-8.4-12-20.3-.8-2.3-1.5-4.7-2.2-7.3-.8-3-1.5-5.9-2-8.6,1.5.8,3.2,1.5,5.1,2.2,2.1.7,4.1,1.2,5.8,1.5Z"/><path class="cls-1" d="m165.5,115l-1.2-1.5s-2.3-2.9-5.4-6c-3.6-3.6-6.7-5.5-9-6.8-.6-.4-1.2-.7-1.7-1-4.6-3.1-8.7-9.9-12.4-20.8-.8-2.4-1.6-4.9-2.3-7.4-.8-2.9-1.5-5.8-2-8.7l-.4-2.2,2,1c1.6.8,3.3,1.6,5,2.2,1.8.6,3.7,1.1,5.6,1.5.9.1,16.6,2.7,21.5,19.4,4.8,16.7,1.2,28.1,1,28.5l-.6,1.9Zm-31.5-50.6c.5,2.2,1,4.3,1.6,6.4.7,2.5,1.4,4.9,2.2,7.3,3.6,10.5,7.4,17,11.6,19.8.4.3,1,.6,1.6,1,2.3,1.3,5.7,3.4,9.5,7.1,1.7,1.7,3.2,3.4,4.2,4.5.8-3.9,2-13.2-1.5-25.3-4.5-15.7-19.1-17.8-19.7-17.9h0c-2-.4-4-.9-6-1.6-1.1-.4-2.2-.8-3.3-1.3Z"/><path class="cls-2" d="m165.2,110.8c-2.4-10.9-6.9-20.9-13.5-29.8,7.8,8,12.6,18.7,13.5,29.8h0Z"/></g><g id="bogstaver"><path class="cls-1" d="m44.1,88.5h16.4v.4c0,4.8-1.4,12.2-5.1,16.8-3.7,4.6-7.9,5.4-11.8,5.4s-8.2-.8-12.1-5.6c-1.9-2.4-4.9-7.2-4.9-15.2s2-11.7,4.8-15.1c4.1-5.1,9.1-5.8,13-5.8s6.2.5,9.3,3c2.2,1.8,4.2,4.6,5.3,7.1l-6.9,4.5c-.6-1.6-1.6-3.2-2.9-4.3-1.5-1.3-3.2-1.9-5.1-1.9-3,0-5.3,1.2-6.8,3.2-1.8,2.3-2.8,5.7-2.8,9.4s1.4,7.5,2.8,9.1c1.9,2.4,4.2,3.1,6.7,3.1s5-1.4,5.7-2.1c.2-.2,1.7-1.8,2.4-4.7h-8v-7.4Z"/><path class="cls-1" d="m84.9,78.2h-11v7.7h10.5v7.8h-10.5v8.8h11v7.8h-18.7v-39.8h18.7v7.8Z"/><path class="cls-1" d="m91.1,110.2v-39.8h6.6l17.9,25.7v-25.7h7.6v39.8h-6.6l-17.9-25.8v25.8h-7.6Z"/><path class="cls-1" d="m45.2,137.5c-2.5-2.7-4.6-2.9-5.5-2.9s-2.3.2-3.2,1.4c-.5.6-.8,1.5-.8,2.5s.2,1.7.7,2.2c.8.9,1.9,1.3,4.2,2.3l2.5,1.1c1.4.7,3.2,1.6,4.5,3,1.9,2.2,2.4,5.1,2.4,7.4,0,4.1-1.2,7.7-2.9,9.8-2.9,3.7-7.2,4.1-9.4,4.1s-4.5-.4-6.5-1.7c-1.7-1-3.6-2.9-4.9-4.4l4-6.6c.8,1,2.2,2.4,3.1,3,1.3,1,2.6,1.4,4.2,1.4s2.4-.2,3.5-1.4c.6-.7,1.2-1.7,1.2-3.2s-.4-2.1-1.1-2.9c-.9-.9-2.9-1.8-3.9-2.2l-2.7-1.1c-1.5-.7-3.3-1.5-4.6-3.2-1.7-2.2-2-5-2-6.9,0-3.5.9-6.5,2.9-9,2.3-2.9,5.1-3.6,8.2-3.6s5.9.5,9.8,3.9l-3.4,6.7Z"/><path class="cls-1" d="m67.1,127.8c2.9,0,6,.5,8.7,3.3,2.8,3,3.2,6.9,3.2,9.7,0,5-1.6,7.8-2.8,9.4-2.6,3.2-6.1,3.5-8.4,3.5h-4.7v14h-7.6v-39.8h11.6Zm-4,18.3h2.7c1,0,2.9,0,4.1-1.5.7-.8,1.2-2.2,1.2-3.9s-.5-3-1.2-3.9c-1.1-1.3-2.8-1.5-4.3-1.5h-2.6v10.8Z"/><path class="cls-1" d="m95.4,127.8c4.2,0,6.8,1.7,8.4,3.5,1.4,1.6,2.9,4.5,2.9,8.9s-.4,5.6-2.6,8.1c-1.1,1.3-2.8,2.5-4.6,3l10.2,16.3h-9.3l-8.9-15.7v15.7h-7.6v-39.8h11.6Zm-4,18.1h1.7c1.4,0,3.3-.2,4.6-1.7.5-.7,1.2-1.9,1.2-3.9s-.9-3.5-1.5-4.1c-1.2-1.1-3.2-1.3-4.2-1.3h-1.8v10.9Z"/><path class="cls-1" d="m143.1,132.7c3.1,3.6,5.2,8.9,5.2,15s-1.6,10.7-5.2,14.9c-3.1,3.6-7.2,5.8-12.8,5.8s-10.4-3-12.9-5.8c-3.2-3.6-5.2-9-5.2-14.8s2.1-11.5,5.1-15.1c2.2-2.7,6.3-5.9,12.9-5.9s9.5,1.9,12.8,5.8Zm-20.1,6.1c-1.4,1.7-2.9,4.6-2.9,9s1,6.6,3,9c2.1,2.4,4.5,3.3,7.1,3.3s5.7-1.5,7.3-3.4c1.3-1.5,2.9-4.3,2.9-8.9s-1.4-7.2-2.9-9c-1.6-1.9-4.3-3.4-7.3-3.4s-5.5,1.3-7.2,3.4Z"/><path class="cls-1" d="m181.9,151.4c0,3.8-.4,8.5-3.7,12.6-3.2,3.9-6.8,4.5-10.3,4.5s-7.1-.6-10.3-4.5c-3.3-4.1-3.7-8.8-3.7-12.6v-23.6h7.6v23.3c0,1.7,0,4.7,1.7,6.7,1.3,1.7,3.2,2.1,4.6,2.1s3.3-.4,4.6-2.1c1.6-2,1.7-5,1.7-6.7v-23.3h7.6v23.6Z"/><path class="cls-1" d="m200.7,135.5v32.1h-7.6v-32.1h-7.2v-7.8h22v7.8h-7.2Z"/></g></svg>