<?xml version="1.0" encoding="UTF-8"?>
<svg id="Lag_1" data-name="Lag 1" xmlns="http://www.w3.org/2000/svg" viewBox="0 0 189.12 263.65">
  <defs>
    <style>
      .cls-1 {
        fill: none;
        stroke: #fffcf7;
        stroke-miterlimit: 10;
        stroke-width: 2px;
      }
    </style>
  </defs>
  <path class="cls-1" d="m61.21,200.69h76.49v26.68c0,1.98-1.61,3.59-3.59,3.59h-68.5c-2.43,0-4.4-1.97-4.4-4.4v-25.87h0Z"/>
  <path class="cls-1" d="m70.9,230.96h57.98v13.04c0,1.31-1.07,2.38-2.38,2.38h-53.22c-1.31,0-2.38-1.07-2.38-2.38v-13.04h0Z"/>
  <path class="cls-1" d="m80.58,246.38h37.74s.08.03.08.08v13.76c0,1.34-1.09,2.43-2.43,2.43h-33.03c-1.34,0-2.43-1.09-2.43-2.43v-13.76s.03-.08.08-.08Z"/>
  <path class="cls-1" d="m63.84,200.69c-3.66-17.12-18.65-18.7-34.7-37.24-18.48-21.35-24.02-43.18-25.09-47.67-2.01-8.44-6.9-30.26,2.67-55.62,3.26-8.65,13.15-33.65,41.11-48.66,43.05-23.12,88.82-.97,90.75,0,31.11,15.67,42.04,42.63,44.31,48.66,10.99,29.26,1.67,54.89-1.07,62.07-4.49,11.77-4.64,16.35-28.29,46.68-11.22,14.39-18.11,17.87-18.15,30.79"/>
  <path class="cls-1" d="m53.33,86.75s15.95-3.7,27.47,7.32c11.52,11.03,12.67,20.94,12.67,20.94,0,0-3.38-1.42-7.76-2.78-6.48-2.02-11.15-2.09-13.74-2.46-4.87-.68-11.11-3.75-19.95-11.49-1.69-1.48-3.43-3.09-5.2-4.85-2.03-2.01-3.86-3.99-5.52-5.9,1.74.09,3.7.11,5.83-.02,2.3-.14,4.38-.43,6.21-.77Z"/>
  <path class="cls-1" d="m130.27,88.97s-14.36-3.41-24.73,6.75c-10.37,10.16-11.41,19.29-11.41,19.29,0,0,3.05-1.3,6.99-2.56,5.83-1.86,10.02-2.39,12.37-2.26,5.06.28,12.84-.77,18.7-9.61,1.98-2.98,1.91-4.1,4.25-6.74,2.05-2.32,4.27-3.8,5.8-4.68-.98.26-2.44.57-4.24.6-.47,0-1.03-.01-2.13-.08-2.07-.13-3.94-.39-5.59-.7Z"/>
  <path class="cls-1" d="m93.7,115.39c-2.88-3.6-7.41-8.35-14.06-12.6-4.1-2.62-8.12-4.25-11.33-5.66"/>
  <path class="cls-1" d="m120.92,98.03c-4.59,1.37-10.9,3.82-17.37,8.3-3.99,2.76-6.95,5.78-9.42,8.14"/>
  <path class="cls-1" d="m93.02,113c3.7,10.89,7.8,27.44,8.57,50.07.48,13.96-.85,27.08-1.71,37.62"/>
  <path class="cls-1" d="m94.87,113.76c3.67,10.8,7.74,27.2,8.51,49.63.48,13.84-.84,26.85-1.68,37.29"/>
</svg>