<?xml version="1.0" encoding="UTF-8"?>
<svg id="Lag_1" data-name="Lag 1" xmlns="http://www.w3.org/2000/svg" viewBox="0 0 296.88 259">
  <defs>
    <style>
      .cls-1 {
        fill: none;
        stroke-width: 3px;
      }

      .cls-1, .cls-2 {
        stroke: #fffcf7;
        stroke-miterlimit: 10;
      }

      .cls-2 {
        fill: #1d1d1b;
        stroke-width: 2px;
      }
    </style>
  </defs>
  <path class="cls-1" d="m56.65,69.74h181.15c5.11,0,9.26,4.15,9.26,9.26v122H47.39v-122c0-5.11,4.15-9.26,9.26-9.26Z"/>
  <path class="cls-1" d="m294.24,252.84c-97.24,0-195.38-.37-292.61-.37-.1,0-.16-.06-.11-.12,15.06-17.12,30.12-34.24,45.17-51.36h200.37c15.74,16.82,34.88,33.2,48.14,50.83.52.69-.11,1.01-.95,1.01Z"/>
  <path class="cls-1" d="m1.5,252.84h293.84v3.59c0,.59-.48,1.07-1.07,1.07H2.46c-.53,0-.96-.43-.96-.96v-3.7h0Z"/>
  <path class="cls-1" d="m256.05,234.16c-71.9-.09-143.79-.17-215.69-.26-2.52,0-4.25-1.56-3.33-3,4.94-7.73,9.89-15.47,14.83-23.2.88-1.38,3.06-2.29,5.48-2.29h181.28c1.43,0,2.73.51,3.32,1.31,5.9,8.02,11.8,16.03,17.69,24.05,1.17,1.59-.73,3.39-3.58,3.38Z"/>
  <path class="cls-1" d="m183.68,249.27c-23.24-.06-46.49-.12-69.73-.18-2.37,0-4.11-1.36-3.57-2.77.92-2.39,1.84-4.77,2.75-7.16.39-1.02,1.87-1.74,3.58-1.74h63.86c1.67,0,3.14.69,3.56,1.68,1.04,2.45,2.08,4.89,3.12,7.34.61,1.43-1.16,2.82-3.58,2.82Z"/>
  <rect class="cls-1" x="56.01" y="79.4" width="183.92" height="114.22" rx="7.66" ry="7.66"/>
  <polygon class="cls-2" points="64.22 121.06 96.96 90.45 97.9 91.56 65.15 122.18 64.22 121.06"/>
  <polygon class="cls-2" points="60.95 146.46 121.26 90.07 122.05 91 61.73 147.39 60.95 146.46"/>
  <path class="cls-1" d="m76.63,2.59s27.06-6.76,46.6,13.36c19.54,20.12,21.49,38.19,21.49,38.19,0,0-5.74-2.58-13.17-5.07-10.99-3.68-18.92-3.82-23.3-4.48-8.26-1.24-18.84-6.85-33.84-20.96-2.87-2.7-5.83-5.64-8.83-8.85-3.44-3.67-6.56-7.28-9.37-10.76,2.96.17,6.28.2,9.89-.04,3.9-.26,7.43-.78,10.53-1.4Z"/>
  <path class="cls-1" d="m213.52,6.65s-24.37-6.23-41.96,12.31c-17.59,18.53-19.35,35.18-19.35,35.18,0,0,5.17-2.38,11.86-4.67,9.89-3.39,17-4.37,20.98-4.13,8.59.52,21.78-1.41,31.72-17.52,3.36-5.44,3.24-7.48,7.2-12.29,3.48-4.24,7.24-6.93,9.83-8.53-1.66.48-4.14,1.03-7.2,1.1-.8.02-1.74-.02-3.61-.15-3.51-.24-6.69-.71-9.48-1.29Z"/>
  <path class="cls-1" d="m144.72,54.14c-4.89-6.56-12.57-15.24-23.86-22.98-6.96-4.78-13.78-7.75-19.23-10.33"/>
  <path class="cls-1" d="m197.66,24.14c-7.79,2.51-18.49,6.97-29.46,15.14-6.77,5.04-11.8,10.53-15.99,14.86"/>
</svg>